<svg width="27" height="24" viewBox="0 0 27 24" fill="none" xmlns="http://www.w3.org/2000/svg">
<path d="M6.2169 23.8258H1.68215C0.837686 23.8249 0.153344 23.2166 0.152344 22.466V1.53347C0.153344 0.782834 0.837686 0.17453 1.68215 0.173641H6.2169C7.06136 0.17453 7.74571 0.782834 7.74671 1.53347V22.466C7.74565 23.2166 7.06136 23.8249 6.2169 23.8258ZM1.68215 0.956989C1.32415 0.957317 1.03403 1.2152 1.03366 1.53342V22.4659C1.03403 22.7842 1.32415 23.042 1.68215 23.0424H6.2169C6.5749 23.042 6.86502 22.7842 6.86539 22.4659V1.53347C6.86502 1.21525 6.5749 0.957363 6.2169 0.957036H1.68215V0.956989Z" fill="black"/>
<path d="M7.30609 10.2055H0.593003C0.349637 10.2055 0.152344 10.0301 0.152344 9.81381V3.2035C0.152344 2.98717 0.349637 2.8118 0.593003 2.8118H7.30604C7.5494 2.8118 7.7467 2.98717 7.7467 3.2035V9.81386C7.74675 10.0301 7.54946 10.2055 7.30609 10.2055ZM1.03366 9.42216H6.86543V3.5952H1.03366V9.42216Z" fill="black"/>
<path d="M3.94945 8.06674C3.70608 8.06674 3.50879 7.89137 3.50879 7.67504V5.34232C3.50879 5.126 3.70608 4.95063 3.94945 4.95063C4.19281 4.95063 4.39011 5.126 4.39011 5.34232V7.67504C4.39005 7.89137 4.19281 8.06674 3.94945 8.06674Z" fill="black"/>
<path d="M12.9298 23.8258H8.39504C7.55058 23.8249 6.86623 23.2166 6.86523 22.466V1.53347C6.86623 0.782834 7.55058 0.17453 8.39504 0.173641H12.9298C13.7743 0.17453 14.4586 0.782834 14.4596 1.53347V22.466C14.4586 23.2166 13.7743 23.8249 12.9298 23.8258ZM8.39504 0.956989C8.03705 0.957317 7.74692 1.2152 7.74656 1.53342V22.4659C7.74692 22.7842 8.03705 23.042 8.39504 23.0424H12.9298C13.2878 23.042 13.5779 22.7842 13.5783 22.4659V1.53347C13.5779 1.21525 13.2878 0.957363 12.9298 0.957036H8.39504V0.956989Z" fill="black"/>
<path d="M14.0189 10.2055H7.30589C7.06253 10.2055 6.86523 10.0301 6.86523 9.81381V3.2035C6.86523 2.98717 7.06253 2.8118 7.30589 2.8118H14.0189C14.2623 2.8118 14.4596 2.98717 14.4596 3.2035V9.81386C14.4596 10.0302 14.2623 10.2055 14.0189 10.2055ZM7.74656 9.42216H13.5783V3.5952H7.74656V9.42216Z" fill="black"/>
<path d="M9.59154 8.06674C9.34817 8.06674 9.15088 7.89137 9.15088 7.67504V5.34232C9.15088 5.126 9.34817 4.95063 9.59154 4.95063C9.8349 4.95063 10.0322 5.126 10.0322 5.34232V7.67504C10.0322 7.89137 9.8349 8.06674 9.59154 8.06674Z" fill="black"/>
<path d="M11.7341 8.06674C11.4908 8.06674 11.2935 7.89137 11.2935 7.67504V5.34232C11.2935 5.126 11.4908 4.95063 11.7341 4.95063C11.9775 4.95063 12.1748 5.126 12.1748 5.34232V7.67504C12.1748 7.89137 11.9775 8.06674 11.7341 8.06674Z" fill="black"/>
<path d="M20.9203 24C20.2219 23.9982 19.6132 23.5767 19.4404 22.9752L13.6258 2.69091C13.4173 1.96312 13.9119 1.22283 14.7306 1.0373L19.1249 0.0420301C19.9434 -0.142375 20.7755 0.296827 20.985 1.02392L26.7998 21.3084C27.0083 22.0362 26.5137 22.7765 25.6949 22.962L21.3006 23.9573C21.1764 23.9856 21.0486 23.9999 20.9203 24ZM19.5026 0.783348C19.4486 0.783301 19.3949 0.789338 19.3427 0.80132L14.9482 1.79659C14.6013 1.87541 14.3918 2.18909 14.48 2.49757L20.2946 22.7819C20.3829 23.0903 20.7357 23.2766 21.0826 23.1981C21.0827 23.1981 21.0828 23.1981 21.0829 23.1981L25.4774 22.2028H25.4776C25.8244 22.1239 26.0338 21.8102 25.9456 21.5018L20.131 1.2175C20.0575 0.962277 19.7989 0.783675 19.5026 0.783348Z" fill="black"/>
<path d="M16.353 11.0098C16.1516 11.0097 15.9759 10.8883 15.9261 10.7149L14.0899 4.30937C14.0298 4.09969 14.1723 3.88645 14.4082 3.83296L20.9134 2.35973C21.1491 2.30619 21.389 2.43256 21.4492 2.64205C21.4492 2.64223 21.4493 2.64242 21.4493 2.64261L23.2855 9.04811C23.3456 9.25779 23.2031 9.47102 22.9673 9.52452L16.4621 10.9977C16.4264 11.0057 16.3898 11.0098 16.353 11.0098ZM15.0527 4.49541L16.6714 10.1419L22.3227 8.86197L20.704 3.21553L15.0527 4.49541Z" fill="black"/>
<path d="M17.4803 8.55195C17.279 8.55186 17.1032 8.43045 17.0534 8.25705L16.4054 5.9964C16.3452 5.78672 16.4877 5.57344 16.7236 5.51999C16.9595 5.46654 17.1994 5.59319 17.2596 5.80287L17.9076 8.06352C17.9679 8.27296 17.8258 8.4862 17.5901 8.53979C17.5542 8.54788 17.5174 8.552 17.4803 8.55195Z" fill="black"/>
<path d="M20.6624 7.70986C20.461 7.70977 20.2854 7.58841 20.2356 7.41496L19.5875 5.15431C19.5274 4.94463 19.6698 4.73135 19.9057 4.6779C20.1416 4.62445 20.3816 4.7511 20.4417 4.96078L21.0898 7.22142C21.1501 7.43087 21.0079 7.6441 20.7723 7.69769C20.7364 7.70579 20.6994 7.70991 20.6624 7.70986Z" fill="black"/>
<path d="M19.1326 8.10381C18.9313 8.10371 18.7556 7.98231 18.7058 7.8089L18.0577 5.54826C17.9976 5.33858 18.1401 5.1253 18.376 5.07185C18.6118 5.0184 18.8518 5.14505 18.9119 5.35473L19.56 7.61537C19.6203 7.82481 19.4781 8.03805 19.2425 8.09164C19.2066 8.09978 19.1697 8.10385 19.1326 8.10381Z" fill="black"/>
</svg>
