<svg width="25" height="26" viewBox="0 0 25 26" fill="none" xmlns="http://www.w3.org/2000/svg">
<path d="M7.5 25.5C6.74603 25.5 6.10119 25.1815 5.56548 24.5444C5.02976 23.9083 4.7619 23.1505 4.7619 22.2708V9.38889L2.58929 3.27778H0V0.5H4.19643L6.16071 6.05556H23.75C24.2064 6.05556 24.5536 6.27546 24.7917 6.71528C25.0298 7.15509 25.0397 7.60648 24.8214 8.06944L21.4286 15.8125C22.4405 15.9977 23.2889 16.5417 23.9738 17.4444C24.6579 18.3472 25 19.412 25 20.6389C25 21.9815 24.5984 23.1273 23.7952 24.0764C22.9913 25.0255 22.0139 25.5 20.8631 25.5C19.6925 25.5 18.7056 25.0255 17.9024 24.0764C17.0984 23.1273 16.6964 21.9815 16.6964 20.6389C16.6964 20.1759 16.746 19.7477 16.8452 19.3542C16.9444 18.9606 17.0833 18.5787 17.2619 18.2083L13.3631 17.7917L9.79167 24.0417C9.53373 24.5046 9.20119 24.8634 8.79405 25.1181C8.3877 25.3727 7.95635 25.5 7.5 25.5ZM7.52976 22.6875C7.56944 22.6875 7.65873 22.6296 7.79762 22.5139L10.6845 17.5139C9.7123 17.3981 8.94841 17.1259 8.39286 16.6972C7.8373 16.2694 7.42063 15.8241 7.14286 15.3611V22.3056C7.14286 22.4213 7.18254 22.5139 7.2619 22.5833C7.34127 22.6528 7.43056 22.6875 7.52976 22.6875ZM20.8333 22.7222C21.3492 22.7222 21.7758 22.5194 22.1131 22.1139C22.4504 21.7093 22.619 21.2176 22.619 20.6389C22.619 20.037 22.4504 19.5394 22.1131 19.1458C21.7758 18.7523 21.3492 18.5556 20.8333 18.5556C20.3373 18.5556 19.9159 18.7523 19.569 19.1458C19.2214 19.5394 19.0476 20.037 19.0476 20.6389C19.0476 21.2176 19.2214 21.7093 19.569 22.1139C19.9159 22.5194 20.3373 22.7222 20.8333 22.7222Z" fill="#CECBCB"/>
</svg>
