<svg width="24" height="24" viewBox="0 0 24 24" fill="none" xmlns="http://www.w3.org/2000/svg">
<g clip-path="url(#clip0_43_283)">
<path d="M22.3852 4.14965H6.49719L5.93179 3.02756C5.78839 2.74242 5.55887 2.50966 5.27577 2.36228C4.99267 2.21489 4.67036 2.16038 4.35453 2.20645L2.77766 2.43515C2.55481 2.46639 2.34193 2.5477 2.15502 2.673C1.56774 3.06433 1.07964 3.58701 0.72936 4.19965C0.37908 4.81229 0.176241 5.49807 0.136905 6.20268L0.135827 6.21328C0.035756 7.18872 0.0821124 8.17364 0.273358 9.13537C0.470846 10.131 0.784132 11.1001 1.20683 12.0229C2.03877 13.8641 3.30561 15.6644 4.87044 17.2293C6.43527 18.7942 8.2356 20.0609 10.0768 20.8929C10.9996 21.3156 11.9687 21.6289 12.9643 21.8264C13.6037 21.9511 14.2535 22.0148 14.9049 22.0166C15.2328 22.0169 15.5604 21.9993 15.8864 21.9639L15.897 21.9628C16.6016 21.9234 17.2874 21.7206 17.9 21.3703C18.5126 21.02 19.0353 20.532 19.4267 19.9447C19.5519 19.7578 19.6332 19.545 19.6644 19.3221L19.7977 18.4034H22.3852C22.8354 18.4029 23.267 18.2238 23.5853 17.9055C23.9036 17.5872 24.0827 17.1556 24.0832 16.7054V5.84765C24.0827 5.39747 23.9036 4.96587 23.5853 4.64755C23.267 4.32922 22.8354 4.15016 22.3852 4.14965ZM22.3852 4.89965C22.518 4.89969 22.6493 4.92784 22.7704 4.98225L14.9018 12.8509C14.7579 12.9939 14.5633 13.0742 14.3605 13.0742C14.1576 13.0742 13.963 12.9939 13.8192 12.8509L7.84593 6.87764C7.83343 6.86536 7.8201 6.85396 7.80604 6.84351C7.77889 6.72582 7.73774 6.6118 7.68346 6.5039L6.8751 4.89965H22.3852ZM10.9724 11.0648L8.35499 13.6822C7.19249 12.5116 6.25382 11.1207 5.75113 9.71999C5.73689 9.68546 5.73479 9.64711 5.74517 9.61123C5.75556 9.57534 5.77783 9.54405 5.80832 9.52246L7.26121 8.38776C7.45768 8.23425 7.6132 8.03459 7.71393 7.80651L10.9724 11.0648ZM4.46235 2.94867C4.5007 2.94307 4.53941 2.94025 4.57818 2.94023C4.72053 2.93982 4.86014 2.97943 4.98106 3.05455C5.10199 3.12967 5.19937 3.23726 5.26208 3.36506L7.01371 6.84135C7.09551 7.00046 7.11889 7.18323 7.07977 7.3578C7.04065 7.53237 6.94151 7.68769 6.79963 7.79667L6.47741 8.04834C5.73304 6.96033 5.07694 5.81448 4.51541 4.62178C4.26899 4.09453 4.04633 3.56297 3.85119 3.0375L4.46235 2.94867ZM18.9224 19.2143C18.9069 19.3274 18.8657 19.4354 18.8018 19.53C18.4752 20.0201 18.039 20.4274 17.5277 20.7196C17.0164 21.0119 16.4441 21.1811 15.8561 21.2138H15.8558C15.839 21.2147 15.822 21.2164 15.8052 21.2182C14.9042 21.3101 13.9944 21.2668 13.1062 21.0897C12.1681 20.9033 11.2551 20.6078 10.3857 20.2093C8.62602 19.4142 6.90229 18.2003 5.40083 16.6988C3.89938 15.1973 2.68531 13.4736 1.89031 11.7141C1.49175 10.8447 1.19627 9.93166 1.00991 8.99362C0.832774 8.10541 0.789451 7.19572 0.881374 6.2947C0.883202 6.27787 0.884843 6.2609 0.885781 6.24365C0.918529 5.65566 1.08773 5.08336 1.37999 4.57209C1.67224 4.06082 2.07953 3.62462 2.56958 3.29803C2.66421 3.23419 2.77224 3.19293 2.88533 3.17742L3.0928 3.14732C3.30796 3.74132 3.55733 4.34329 3.83596 4.93926C4.42157 6.18313 5.10687 7.37757 5.88515 8.5109L5.34669 8.93142C5.19156 9.04997 5.07855 9.21516 5.02428 9.40271C4.97001 9.59026 4.97734 9.79028 5.04519 9.97335C6.1288 12.9928 9.10692 15.9709 12.1264 17.0546C12.3095 17.1224 12.5095 17.1298 12.697 17.0755C12.8846 17.0213 13.0498 16.9083 13.1683 16.7532L13.5889 16.2147C14.7222 16.9929 15.9166 17.6782 17.1605 18.2638C17.7566 18.5425 18.3587 18.7919 18.9525 19.007L18.9224 19.2143ZM19.1512 17.6374L19.0625 18.2485C18.5371 18.0534 18.0054 17.8307 17.4781 17.5842C16.2854 17.0227 15.1396 16.3666 14.0516 15.6223L14.3032 15.3C14.4122 15.1582 14.5675 15.059 14.7421 15.0199C14.9166 14.9808 15.0994 15.0042 15.2585 15.086L18.7347 16.8375C18.8803 16.9091 18.9993 17.0253 19.0742 17.1692C19.1491 17.3131 19.176 17.4772 19.1511 17.6375L19.1512 17.6374ZM22.3853 17.6533H19.903C19.9287 17.351 19.8632 17.048 19.7152 16.7832C19.5671 16.5185 19.3432 16.3041 19.0722 16.1678L15.5959 14.4162C15.2814 14.2585 14.922 14.2144 14.5787 14.2914C14.2354 14.3683 13.9292 14.5615 13.7121 14.8384L12.5773 16.2915C12.5557 16.322 12.5244 16.3443 12.4886 16.3546C12.4527 16.365 12.4143 16.3629 12.3798 16.3487C11.1666 15.9133 9.96103 15.1505 8.89912 14.1988L11.5027 11.5952L13.2887 13.3811C13.5732 13.6648 13.9586 13.8241 14.3603 13.8241C14.7621 13.8241 15.1475 13.6648 15.432 13.3811L17.1885 11.625L22.9944 17.4306C22.8241 17.5746 22.6082 17.6535 22.3852 17.6534L22.3853 17.6533ZM23.3333 16.7053V16.7084L17.7189 11.0944L23.2789 5.53448C23.3146 5.63504 23.333 5.74094 23.3332 5.84765L23.3333 16.7053Z" fill="black"/>
</g>
<defs>
<clipPath id="clip0_43_283">
<rect width="24" height="24" fill="white"/>
</clipPath>
</defs>
</svg>
