<svg width="25" height="25" viewBox="0 0 25 25" fill="none" xmlns="http://www.w3.org/2000/svg">
<path d="M25 17.7368L17.6749 24.5483L14.1373 21.2524L15.3209 20.1538L17.6749 22.3267L23.8164 16.6382L25 17.7368ZM11.7833 7.8125H6.7333V6.25H11.7833V7.8125ZM11.7833 10.9375H6.7333V9.375H11.7833V10.9375ZM6.7333 12.5H11.7833V14.0625H6.7333V12.5ZM5.04997 7.8125H3.36665V6.25H5.04997V7.8125ZM5.04997 10.9375H3.36665V9.375H5.04997V10.9375ZM3.36665 12.5H5.04997V14.0625H3.36665V12.5ZM13.4666 7.8125V1.5625H1.68332V23.4375H13.4666V25H0V0H14.6633L21.8832 6.70166V15.625L20.1999 17.1875V7.8125H13.4666ZM15.1499 6.25H19.0032L15.1499 2.67334V6.25Z" fill="#494949"/>
</svg>
