<svg width="30" height="30" viewBox="0 0 30 30" fill="none" xmlns="http://www.w3.org/2000/svg">
<path d="M15 0.000518799C6.7166 0.000518799 0 6.71579 0 14.9999C0 23.2839 6.71594 29.9992 15 29.9992C23.2847 29.9992 30 23.2839 30 14.9999C30 6.71579 23.2847 0.000518799 15 0.000518799ZM15 4.48549C17.7409 4.48549 19.962 6.70723 19.962 9.44684C19.962 12.1871 17.7409 14.4082 15 14.4082C12.2604 14.4082 10.0393 12.1871 10.0393 9.44684C10.0393 6.70723 12.2604 4.48549 15 4.48549ZM14.9967 26.0775C12.263 26.0775 9.75929 25.082 7.82812 23.4341C7.35768 23.0329 7.08623 22.4445 7.08623 21.8271C7.08623 19.0486 9.33497 16.8249 12.1141 16.8249H17.8872C20.667 16.8249 22.9072 19.0486 22.9072 21.8271C22.9072 22.4452 22.637 23.0322 22.1659 23.4335C20.2354 25.082 17.731 26.0775 14.9967 26.0775Z" fill="#CECBCB"/>
</svg>
