<svg width="20" height="20" viewBox="0 0 20 20" fill="none" xmlns="http://www.w3.org/2000/svg">
<path d="M4.18822 12.5228L3.26711 14.7282C3.24562 14.78 3.20998 14.8244 3.16447 14.8561C3.11896 14.8878 3.0655 14.9054 3.01047 14.9068L0.693255 15.1198L2.45968 16.6971C2.54171 16.7706 2.57296 16.8817 2.55031 16.9835L2.02843 19.3216L4.04056 18.091C4.13431 18.0335 4.24759 18.0375 4.33509 18.091L6.34801 19.3216L6.11871 18.2964C6.30933 18.3184 6.50582 18.304 6.69684 18.2505L6.95778 19.4215C6.9652 19.4722 6.9652 19.5245 6.957 19.5769C6.94699 19.6399 6.92553 19.7005 6.89371 19.7555C6.82695 19.8696 6.71863 19.9519 6.59254 19.9844C6.47184 20.0156 6.33863 19.9992 6.22183 19.9281L4.18783 18.6843L2.1714 19.9181C2.12765 19.9473 2.07843 19.9696 2.02569 19.9832L1.98897 19.9924C1.93272 20.0028 1.87217 20.0028 1.81124 19.9908L1.79171 19.9872C1.66123 19.956 1.55459 19.8737 1.4878 19.7651C1.42025 19.6552 1.39688 19.523 1.42256 19.3959L1.95264 17.0231L0.168249 15.4294C0.121374 15.3874 0.0815297 15.3355 0.0534044 15.2784C0.0271285 15.2259 0.0100721 15.1691 0.00301321 15.1106L0.00106007 15.0846C-0.00753378 14.9523 0.0366073 14.8269 0.115905 14.7302C0.194422 14.6343 0.307313 14.5684 0.436221 14.5536L2.80617 14.3375L3.73509 12.1117C3.75975 12.0517 3.79557 11.9971 3.84056 11.9511C3.87728 11.9127 3.92103 11.8804 3.96985 11.8552C3.98743 11.8456 4.0054 11.8376 4.02454 11.8316C4.14017 11.7893 4.26361 11.7953 4.37064 11.8392C4.47806 11.8836 4.57064 11.9667 4.62611 12.0793L5.36128 13.8377L5.1476 14.7937C5.13198 14.7738 5.11948 14.7518 5.10971 14.7282L4.18822 12.5228ZM1.59912 6.06404C1.37647 5.96815 1.27178 5.70606 1.36553 5.47833C1.45928 5.2506 1.71592 5.14353 1.93858 5.23941L3.76399 6.03048C3.98665 6.12637 4.09134 6.38886 3.99759 6.61619C3.90384 6.84392 3.64719 6.95099 3.42454 6.85511L1.59912 6.06404ZM3.4554 3.15388C3.28508 2.97848 3.28586 2.69482 3.45735 2.52062C3.62884 2.34643 3.90618 2.34723 4.0765 2.52262L5.47104 3.96412C5.64136 4.13951 5.64058 4.42318 5.46909 4.59737C5.2976 4.77157 5.02026 4.77077 4.84994 4.59537L3.4554 3.15388ZM6.25425 1.1826C6.16246 0.954074 6.2691 0.692383 6.49254 0.598493C6.71637 0.504604 6.97184 0.613675 7.06403 0.842206L7.81794 2.71799C7.90974 2.94652 7.80271 3.20821 7.57927 3.3021C7.35583 3.39599 7.09997 3.28692 7.00817 3.05839L6.25425 1.1826ZM18.0614 5.23941C18.2841 5.14353 18.5407 5.2506 18.6345 5.47833C18.7282 5.70606 18.6235 5.96815 18.4009 6.06404L16.5755 6.85511C16.3528 6.95099 16.0962 6.84392 16.0024 6.61619C15.9087 6.38886 16.0133 6.12637 16.236 6.03048L18.0614 5.23941ZM15.9235 2.52262C16.0938 2.34723 16.3712 2.34643 16.5427 2.52062C16.7141 2.69482 16.7149 2.97848 16.5446 3.15388L15.1501 4.59537C14.9797 4.77077 14.7024 4.77157 14.5309 4.59737C14.3594 4.42318 14.3586 4.13951 14.529 3.96412L15.9235 2.52262ZM12.936 0.842206C13.0282 0.613675 13.2836 0.504604 13.5075 0.598493C13.7309 0.692383 13.8375 0.954074 13.7457 1.1826L12.9918 3.05839C12.9 3.28692 12.6442 3.39599 12.4207 3.3021C12.1973 3.20821 12.0903 2.94652 12.1821 2.71799L12.936 0.842206ZM9.54726 0.44907C9.54726 0.201362 9.74375 0 9.98633 0C10.2285 0 10.4254 0.201362 10.4254 0.44907V2.47708C10.4254 2.72478 10.2285 2.92615 9.98633 2.92615C9.74375 2.92615 9.54726 2.72478 9.54726 2.47708V0.44907ZM10.4957 5.4188L11.9004 8.78243L15.477 9.11004C15.6212 9.12483 15.7462 9.19714 15.8329 9.30262L15.8473 9.32219C15.9243 9.42487 15.9665 9.55512 15.9567 9.69216L15.9551 9.71253C15.9481 9.78045 15.9286 9.84398 15.9001 9.90151L15.8919 9.91669C15.8661 9.96424 15.8333 10.0082 15.7954 10.0457L13.0743 12.4773L13.8758 16.0658C13.9043 16.2085 13.8754 16.3503 13.8043 16.4658C13.6457 16.7255 13.3071 16.7986 13.059 16.6328L10 14.7618L6.91559 16.6475C6.79557 16.719 6.65301 16.7396 6.51832 16.7051C6.23433 16.632 6.06363 16.3411 6.1273 16.0526L6.92575 12.4773L4.22494 10.0649C4.17202 10.0176 4.12873 9.96007 4.09757 9.89563C4.0664 9.83119 4.04796 9.7611 4.04329 9.68936C4.03431 9.55112 4.07728 9.40769 4.17454 9.29423C4.22337 9.2375 4.2808 9.19315 4.34252 9.16238C4.40619 9.13042 4.4765 9.11204 4.5476 9.10805L8.09959 8.78243L9.50781 5.40961C9.56562 5.27098 9.67382 5.1683 9.80078 5.11636C10.075 5.00329 10.3816 5.13993 10.4938 5.41361L10.4957 5.4188ZM16.2673 12.1177L17.1938 14.3375L19.5638 14.5536C19.6927 14.5684 19.8056 14.6347 19.8841 14.7302C19.9634 14.8269 20.0075 14.9523 19.9989 15.0846L19.997 15.1106C19.9899 15.1691 19.9729 15.2259 19.9466 15.2784C19.9185 15.3355 19.879 15.387 19.8318 15.4294L18.0474 17.0231L18.5774 19.3959C18.604 19.5273 18.5774 19.6588 18.5122 19.7651C18.4458 19.8733 18.3388 19.956 18.2083 19.9872L18.1888 19.9908C18.1278 20.0028 18.0677 20.0028 18.011 19.9924L17.9743 19.9832C17.9216 19.9696 17.8724 19.9477 17.8286 19.9181L15.8118 18.6843L13.7782 19.9281C13.723 19.9619 13.6619 19.9844 13.5983 19.994C13.5347 20.0037 13.4698 20.0004 13.4075 19.9844C13.2864 19.9532 13.1758 19.8741 13.1063 19.7555C13.0735 19.6991 13.0524 19.6384 13.0426 19.5777L13.0422 19.5745C13.034 19.5245 13.0344 19.473 13.0422 19.4223L13.3036 18.2493C13.3461 18.2612 13.3899 18.2712 13.4336 18.2792C13.5801 18.3064 13.7313 18.3128 13.8813 18.2956L13.652 19.3216L15.6645 18.091C15.7524 18.0375 15.8653 18.0335 15.9591 18.091L17.9716 19.3216L17.4493 16.9835C17.427 16.8817 17.4583 16.7706 17.5403 16.6971L19.3067 15.1198L16.9895 14.9068C16.9345 14.9054 16.881 14.8878 16.8355 14.8561C16.79 14.8244 16.7544 14.78 16.7329 14.7282L15.8118 12.5228L14.8911 14.7282C14.8809 14.7526 14.8672 14.7754 14.8512 14.7957L14.6379 13.8405L15.3739 12.0793C15.4294 11.9667 15.5219 11.8836 15.6294 11.8392C15.7368 11.7953 15.8602 11.7893 15.9758 11.8316C15.995 11.838 16.0133 11.846 16.0305 11.8556C16.0798 11.8808 16.1227 11.9131 16.1594 11.9511C16.2048 11.9978 16.2407 12.053 16.2649 12.1117L16.2673 12.1177Z" fill="white"/>
</svg>
