<svg width="193" height="185" viewBox="0 0 193 185" fill="none" xmlns="http://www.w3.org/2000/svg">
<path d="M191.548 175.397H0V185H191.548V175.397Z" fill="#CBA06B"/>
<path opacity="0.5" d="M191.548 175.397H0V185H191.548V175.397Z" fill="white"/>
<path d="M105.582 164.827V152.631H76.1915V164.827C76.1868 168.8 75.0863 172.655 73.0678 175.769L71.781 177.75H109.992L108.705 175.769C106.687 172.655 105.587 168.8 105.582 164.827Z" fill="white" stroke="#2E353A" stroke-linecap="round" stroke-linejoin="round"/>
<path d="M74.3843 173.368H107.389C106.205 170.754 105.583 167.815 105.582 164.827V152.631H76.1917V164.827C76.1911 167.815 75.5692 170.754 74.3843 173.368Z" fill="#CBA06B"/>
<path d="M145.782 48.2075H35.9862C33.686 48.2075 31.8213 50.4862 31.8213 53.2972V151.389C31.8213 154.2 33.686 156.478 35.9862 156.478H145.782C148.082 156.478 149.947 154.2 149.947 151.389V53.2972C149.947 50.4862 148.082 48.2075 145.782 48.2075Z" fill="#2E353A" stroke="#2E353A" stroke-linecap="round" stroke-linejoin="round"/>
<path d="M31.8213 139.649H149.952V151.383C149.952 152.732 149.513 154.027 148.732 154.982C147.951 155.936 146.892 156.472 145.787 156.472H35.9911C34.8865 156.472 33.8272 155.936 33.0461 154.982C32.265 154.027 31.8262 152.732 31.8262 151.383V139.649H31.8213Z" fill="white" stroke="#2E353A" stroke-linecap="round" stroke-linejoin="round"/>
<path d="M144.009 54.9478H37.7642V131.438H144.009V54.9478Z" fill="white" stroke="#2E353A" stroke-linecap="round" stroke-linejoin="round"/>
<path d="M93.0674 148.063C93.0674 147.536 92.9396 147.021 92.6999 146.583C92.4603 146.145 92.1197 145.803 91.7213 145.601C91.3228 145.4 90.8843 145.347 90.4613 145.45C90.0383 145.553 89.6497 145.806 89.3448 146.179C89.0398 146.552 88.8321 147.027 88.748 147.544C88.6638 148.06 88.707 148.596 88.8721 149.083C89.0371 149.57 89.3166 149.986 89.6752 150.279C90.0338 150.572 90.4555 150.728 90.8868 150.728C91.4651 150.728 92.0198 150.448 92.4287 149.948C92.8377 149.448 93.0674 148.77 93.0674 148.063Z" fill="#2E353A" stroke="#2E353A" stroke-linecap="round" stroke-linejoin="round"/>
<path d="M109.997 177.774H71.781V179.952H109.997V177.774Z" fill="white" stroke="#2E353A" stroke-linecap="round" stroke-linejoin="round"/>
<path d="M143.012 60.3376H38.5991V67.0419H143.012V60.3376Z" fill="white" stroke="#2E353A" stroke-linecap="round" stroke-linejoin="round"/>
<path d="M55.8286 67.0419L54.5762 62.9005H38.5991V67.0419V72.5338V128.179H143.012V67.0419H55.8286Z" fill="#CBA06B" stroke="#2E353A" stroke-linecap="round" stroke-linejoin="round"/>
<path d="M66.7026 97.3582H115.66" stroke="#2E353A" stroke-width="2" stroke-linecap="round" stroke-linejoin="round"/>
<path d="M66.7026 103.24H115.66" stroke="#2E353A" stroke-width="2" stroke-linecap="round" stroke-linejoin="round"/>
<path d="M66.7026 109.122H115.66" stroke="#2E353A" stroke-width="2" stroke-linecap="round" stroke-linejoin="round"/>
<path d="M66.7026 115.01H115.66" stroke="#2E353A" stroke-width="2" stroke-linecap="round" stroke-linejoin="round"/>
<path d="M113.072 81.6749H68.7066C68.25 81.6757 67.7977 81.5665 67.3755 81.3537C66.9534 81.1409 66.5697 80.8285 66.2463 80.4345C65.923 80.0404 65.6663 79.5724 65.4909 79.0572C65.3156 78.5419 65.225 77.9895 65.2244 77.4314C65.2237 76.8734 65.313 76.3206 65.4872 75.8048C65.6613 75.2889 65.9169 74.82 66.2394 74.4249C66.5618 74.0297 66.9448 73.716 67.3664 73.5017C67.7881 73.2875 68.2401 73.1768 68.6968 73.176H113.072C113.529 73.1752 113.983 73.2847 114.405 73.4983C114.828 73.7119 115.212 74.0253 115.536 74.4206C115.859 74.8159 116.116 75.2854 116.29 75.802C116.465 76.3187 116.555 76.8724 116.554 77.4314C116.554 77.9895 116.463 78.5419 116.288 79.0572C116.112 79.5724 115.856 80.0404 115.532 80.4345C115.209 80.8285 114.825 81.1409 114.403 81.3537C113.981 81.5665 113.529 81.6757 113.072 81.6749Z" fill="white" stroke="#2E353A" stroke-linecap="round" stroke-linejoin="round"/>
<path d="M113.072 81.6749H107.011V73.164H113.072C113.529 73.1632 113.982 73.2727 114.405 73.4863C114.828 73.6999 115.212 74.0133 115.536 74.4086C115.859 74.8039 116.115 75.2733 116.29 75.79C116.465 76.3066 116.555 76.8604 116.554 77.4194C116.555 77.9785 116.465 78.5322 116.29 79.0488C116.115 79.5655 115.859 80.0349 115.536 80.4302C115.212 80.8256 114.828 81.139 114.405 81.3526C113.982 81.5661 113.529 81.6757 113.072 81.6749Z" fill="#2E353A" stroke="#2E353A" stroke-linecap="round" stroke-linejoin="round"/>
<path d="M111.721 74.2443C111.433 73.9139 111.07 73.6956 110.68 73.6168C110.29 73.5381 109.889 73.6025 109.529 73.802C109.169 74.0015 108.865 74.327 108.657 74.7374C108.448 75.1478 108.343 75.6247 108.357 76.1077C108.37 76.5906 108.5 77.0581 108.73 77.4507C108.961 77.8434 109.281 78.1437 109.651 78.3137C110.021 78.4837 110.425 78.5157 110.81 78.4056C111.195 78.2956 111.544 78.0485 111.814 77.6955C111.994 77.4626 112.135 77.1885 112.228 76.8891C112.321 76.5896 112.365 76.2706 112.356 75.9505C112.348 75.6303 112.288 75.3153 112.18 75.0235C112.072 74.7318 111.918 74.469 111.726 74.2503L111.721 74.2443ZM111.525 77.3654C111.308 77.6468 111.028 77.8433 110.719 77.9302C110.411 78.0172 110.089 77.9906 109.793 77.8539C109.497 77.7171 109.241 77.4764 109.057 77.1619C108.873 76.8475 108.769 76.4736 108.759 76.0872C108.749 75.7008 108.832 75.3194 108.999 74.9911C109.166 74.6628 109.409 74.4022 109.697 74.2423C109.985 74.0824 110.305 74.0303 110.617 74.0926C110.93 74.155 111.22 74.3289 111.451 74.5925C111.762 74.9483 111.944 75.4403 111.958 75.9603C111.971 76.4802 111.816 76.9856 111.525 77.3654Z" fill="white"/>
<path d="M113.224 78.5838C113.18 78.5315 113.125 78.4958 113.065 78.4809C113.005 78.466 112.942 78.4725 112.885 78.4998L112.163 77.6715C112.126 77.6275 112.077 77.6029 112.026 77.6029C111.974 77.6029 111.925 77.6275 111.888 77.6715L111.824 77.7555C111.789 77.8021 111.77 77.8632 111.77 77.9266C111.77 77.99 111.789 78.0511 111.824 78.0977L112.536 78.9139C112.515 78.9882 112.512 79.0683 112.527 79.1448C112.542 79.2214 112.574 79.2912 112.62 79.3461L113.848 80.8166C113.929 80.9148 114.038 80.9699 114.152 80.9699C114.266 80.9699 114.376 80.9148 114.457 80.8166C114.537 80.7176 114.582 80.5839 114.582 80.4444C114.582 80.305 114.537 80.1713 114.457 80.0723L113.224 78.5838Z" fill="white"/>
<path d="M125.905 107.346C126.049 107.78 126.262 108.175 126.533 108.507C126.804 108.839 127.127 109.102 127.482 109.278C128.037 109.554 128.779 109.494 129.633 110.083C131.564 111.409 136.382 110.227 139.874 110.683C143.366 111.139 148.071 106.415 148.071 106.415L161.926 107.346V90.5399C161.926 90.5399 147.467 91.2781 144.333 89.8016C141.2 88.3251 137.708 85.2401 136.141 85.3841C134.574 85.5282 121.682 87.2988 121.682 87.2988L125.901 107.346H125.905Z" fill="white" stroke="#2E353A" stroke-linecap="round" stroke-linejoin="round"/>
<path d="M122.32 39.5826C119.459 39.9695 116.757 41.3845 114.554 43.6486C112.351 45.9126 110.748 48.924 109.945 52.302C109.143 55.68 109.179 59.2728 110.047 62.6261C110.916 65.9795 112.579 68.9427 114.826 71.1411C117.072 73.3395 119.802 74.6743 122.67 74.9768C125.537 75.2793 128.414 74.5358 130.936 72.8404C133.458 71.145 135.512 68.5738 136.838 65.452C138.164 62.3302 138.702 58.7979 138.386 55.3019C138.177 52.98 137.595 50.7313 136.674 48.6843C135.754 46.6374 134.512 44.8323 133.02 43.3723C131.527 41.9124 129.814 40.8262 127.979 40.1759C126.143 39.5256 124.22 39.324 122.32 39.5826ZM125.208 71.4414C122.913 71.7529 120.594 71.2259 118.545 69.9269C116.495 68.6279 114.806 66.6153 113.693 64.1436C112.579 61.6718 112.09 58.852 112.287 56.0407C112.485 53.2293 113.36 50.5527 114.803 48.3493C116.245 46.146 118.19 44.5148 120.391 43.662C122.592 42.8093 124.951 42.7733 127.168 43.5586C129.386 44.3439 131.363 45.9152 132.85 48.0739C134.337 50.2326 135.267 52.8816 135.522 55.686C135.692 57.5482 135.559 59.4328 135.132 61.2324C134.706 63.0319 133.993 64.7112 133.035 66.1742C132.078 67.6372 130.894 68.8554 129.551 69.7591C128.208 70.6629 126.732 71.2345 125.208 71.4414Z" fill="white" stroke="#2E353A" stroke-linecap="round" stroke-linejoin="round"/>
<path d="M122.242 38.5682C119.381 38.9552 116.678 40.3702 114.476 42.6342C112.273 44.8982 110.669 47.9097 109.867 51.2876C109.064 54.6656 109.1 58.2585 109.969 61.6118C110.837 64.9651 112.5 67.9283 114.747 70.1268C116.994 72.3252 119.724 73.66 122.591 73.9625C125.459 74.2649 128.335 73.5215 130.857 71.8261C133.379 70.1307 135.433 67.5595 136.759 64.4376C138.085 61.3158 138.624 57.7836 138.307 54.2876C137.881 49.6003 135.95 45.3114 132.937 42.3638C129.925 39.4161 126.078 38.0509 122.242 38.5682ZM125.13 70.427C122.835 70.7386 120.516 70.2116 118.466 68.9125C116.416 67.6135 114.728 65.6009 113.614 63.1292C112.5 60.6575 112.011 57.8376 112.209 55.0263C112.406 52.215 113.282 49.5384 114.724 47.335C116.167 45.1316 118.111 43.5004 120.312 42.6477C122.513 41.7949 124.872 41.7589 127.09 42.5442C129.307 43.3295 131.285 44.9009 132.772 47.0596C134.259 49.2182 135.189 51.8673 135.444 54.6717C135.613 56.5338 135.481 58.4185 135.054 60.218C134.627 62.0176 133.915 63.6968 132.957 65.1599C131.999 66.6229 130.815 67.8411 129.472 68.7448C128.129 69.6485 126.653 70.2202 125.13 70.427Z" fill="white" stroke="#2E353A" stroke-linecap="round" stroke-linejoin="round"/>
<path d="M125.923 74.2505L125.235 74.3437C124.458 74.4487 123.899 75.3032 123.985 76.252L125.102 88.5769C125.188 89.5257 125.887 90.2098 126.663 90.1047L127.352 90.0115C128.128 89.9064 128.688 89.052 128.602 88.1031L127.485 75.7783C127.399 74.8294 126.7 74.1454 125.923 74.2505Z" fill="#CBA06B" stroke="#2E353A" stroke-linecap="round" stroke-linejoin="round"/>
<path d="M125.699 84.5378L127.173 84.3458C127.806 84.2629 128.441 84.4887 128.94 84.9741C129.438 85.4594 129.76 86.1653 129.835 86.9387L132.04 111.313C132.13 112.309 131.892 113.308 131.379 114.091C130.866 114.873 130.12 115.374 129.304 115.484H129.206C128.802 115.539 128.394 115.497 128.003 115.358C127.613 115.22 127.249 114.989 126.932 114.678C126.615 114.368 126.351 113.984 126.155 113.548C125.96 113.113 125.837 112.635 125.793 112.141L123.587 87.7729C123.552 87.387 123.579 86.9964 123.667 86.6233C123.755 86.2503 123.903 85.9021 124.101 85.5988C124.3 85.2955 124.545 85.0431 124.824 84.8559C125.102 84.6687 125.408 84.5504 125.724 84.5078L125.699 84.5378Z" fill="#2E353A" stroke="#2E353A" stroke-linecap="round" stroke-linejoin="round"/>
<path d="M127.841 104.849C127.841 104.849 124.349 105.005 123.858 105.743C123.366 106.481 123.455 109.05 124.403 109.344C126.819 110.119 131.957 109.668 132.158 109.14C132.359 108.612 132.772 105.539 131.711 105.209C130.43 104.969 129.136 104.849 127.841 104.849Z" fill="white" stroke="#2E353A" stroke-linecap="round" stroke-linejoin="round"/>
<path d="M126.834 98.8947C126.834 98.8947 122.772 98.7087 122.139 99.603C121.505 100.497 121.382 103.84 122.453 104.345C125.184 105.623 131.328 105.125 131.608 104.465C131.888 103.804 132.497 100.377 131.293 99.825C130.09 99.2728 126.834 98.8947 126.834 98.8947Z" fill="white" stroke="#2E353A" stroke-linecap="round" stroke-linejoin="round"/>
<path d="M126.249 92.1724C126.249 92.1724 121.908 91.9684 121.23 92.9287C120.552 93.889 120.419 97.4542 121.564 97.9944C124.511 99.3629 130.896 99.3629 131.195 98.6546C131.495 97.9464 132.3 93.757 131.014 93.1628C129.727 92.5686 126.249 92.1724 126.249 92.1724Z" fill="white" stroke="#2E353A" stroke-linecap="round" stroke-linejoin="round"/>
<path d="M123.744 85.8823C123.744 85.8823 119.403 85.6842 118.725 86.6386C118.047 87.5929 117.885 91.2721 119.059 91.7043C120.233 92.1364 128.391 93.0727 128.69 92.3705C128.99 91.6683 129.795 87.4668 128.509 86.8726C127.222 86.2784 123.744 85.8823 123.744 85.8823Z" fill="white" stroke="#2E353A" stroke-linecap="round" stroke-linejoin="round"/>
<path d="M137.963 103.534C137.184 103.272 136.445 102.855 135.778 102.298C132.286 99.3509 132.403 92.5806 132.403 92.5806L131.564 92.2865C130.87 91.9639 130.219 91.5168 129.633 90.96C129.915 92.3586 130.079 93.7884 130.125 95.2275C130.112 96.0183 129.859 96.7752 129.415 97.351C128.971 97.9267 128.368 98.2801 127.723 98.3425C126.637 98.4926 126.156 98.6366 125.793 96.872C125.429 95.1074 123.627 88.037 123.504 87.0047C123.396 86.0684 124.683 84.3998 126.731 84.0037C129.879 84.3158 132.983 85.3901 136.156 85.3901C137.26 85.5168 138.318 85.9925 139.226 86.7706" fill="white"/>
<path d="M137.963 103.534C137.184 103.272 136.445 102.855 135.778 102.298C132.286 99.3509 132.403 92.5806 132.403 92.5806L131.564 92.2865C130.87 91.9639 130.219 91.5168 129.633 90.96C129.915 92.3586 130.079 93.7884 130.125 95.2275C130.112 96.0183 129.859 96.7752 129.415 97.351C128.971 97.9267 128.368 98.2801 127.723 98.3425C126.637 98.4926 126.156 98.6366 125.793 96.872C125.429 95.1074 123.627 88.037 123.504 87.0047C123.396 86.0684 124.683 84.3998 126.731 84.0037C129.879 84.3158 132.983 85.3901 136.156 85.3901C137.26 85.5168 138.318 85.9925 139.226 86.7706" stroke="#2E353A" stroke-linecap="round" stroke-linejoin="round"/>
<path d="M141.283 103.906C140.9 103.93 140.517 103.93 140.134 103.906H141.283Z" fill="white"/>
<path d="M141.283 103.906C140.9 103.93 140.517 103.93 140.134 103.906" stroke="#2E353A" stroke-linecap="round" stroke-linejoin="round"/>
<path d="M143.852 103.324C143.018 103.647 142.156 103.848 141.283 103.924L143.852 103.324Z" fill="white"/>
<path d="M143.852 103.324C143.018 103.647 142.156 103.848 141.283 103.924" stroke="#2E353A" stroke-linecap="round" stroke-linejoin="round"/>
<path d="M148.189 101.416H152.526" stroke="#2E353A" stroke-linecap="round" stroke-linejoin="round"/>
<path d="M148.552 102.886H150.36" stroke="#2E353A" stroke-linecap="round" stroke-linejoin="round"/>
<path d="M132.404 92.5806C132.404 92.5806 134.8 92.5806 136.372 90.834" stroke="#2E353A" stroke-linecap="round" stroke-linejoin="round"/>
<path d="M129.579 90.768C129.51 89.9686 129.374 89.1801 129.172 88.4152" stroke="#2E353A" stroke-linecap="round" stroke-linejoin="round"/>
<path d="M125.758 96.0978C125.758 96.0978 125.302 94.5492 125.857 93.9911C126.412 93.4329 127.885 92.6286 128.14 93.2468C128.396 93.865 128.951 96.716 128.799 97.2742L128.646 97.8324" stroke="#2E353A" stroke-width="0.5" stroke-linecap="round" stroke-linejoin="round"/>
<path d="M192.333 114.878H150.807V89.9337H192.333" fill="#CBA06B"/>
<path d="M192.333 114.878H150.807V89.9337H192.333" stroke="#2E353A" stroke-linecap="round" stroke-linejoin="round"/>
<path d="M153.852 113.21C154.367 113.21 154.785 112.699 154.785 112.069C154.785 111.439 154.367 110.929 153.852 110.929C153.337 110.929 152.919 111.439 152.919 112.069C152.919 112.699 153.337 113.21 153.852 113.21Z" fill="white" stroke="#2E353A" stroke-linecap="round" stroke-linejoin="round"/>
<path d="M67.3116 156.562C67.1689 156.998 66.9557 157.393 66.6847 157.725C66.4138 158.057 66.0908 158.319 65.735 158.495C65.18 158.777 64.4433 158.711 63.5838 159.299C61.6585 160.626 56.8403 159.449 53.3434 159.899C49.8464 160.35 45.151 155.632 45.151 155.632L31.281 156.562V139.757C31.281 139.757 45.7404 140.495 48.8739 139.024C52.0074 137.554 55.4995 134.457 57.0663 134.607C58.633 134.757 71.5256 136.522 71.5256 136.522L67.3116 156.562Z" fill="white" stroke="#2E353A" stroke-linecap="round" stroke-linejoin="round"/>
<path d="M70.8726 88.8353C73.7333 89.2223 76.436 90.6373 78.6387 92.9013C80.8414 95.1653 82.4453 98.1768 83.2475 101.555C84.0497 104.933 84.0142 108.526 83.1455 111.879C82.2768 115.232 80.6139 118.195 78.3671 120.394C76.1203 122.592 73.3905 123.927 70.5229 124.23C67.6553 124.532 64.7787 123.789 62.2569 122.093C59.7351 120.398 57.6813 117.827 56.3552 114.705C55.0292 111.583 54.4904 108.051 54.8071 104.555C55.2318 99.8683 57.1624 95.58 60.1744 92.6332C63.1863 89.6864 67.0328 88.3224 70.8677 88.8413L70.8726 88.8353ZM67.9846 120.694C70.2803 121.007 72.6003 120.48 74.6513 119.182C76.7023 117.883 78.392 115.87 79.507 113.398C80.6219 110.926 81.1119 108.105 80.915 105.293C80.7181 102.48 79.8432 99.8019 78.4009 97.597C76.9585 95.3921 75.0136 93.7594 72.8119 92.9053C70.6103 92.0511 68.2508 92.014 66.0319 92.7986C63.813 93.5831 61.8343 95.1541 60.346 97.3129C58.8577 99.4717 57.9266 102.121 57.6705 104.927C57.3284 108.689 58.2227 112.463 60.1567 115.42C62.0908 118.376 64.9064 120.273 67.9846 120.694Z" fill="white" stroke="#2E353A" stroke-linecap="round" stroke-linejoin="round"/>
<path d="M70.9609 87.821C73.8204 88.2091 76.5215 89.6246 78.7227 91.8886C80.9239 94.1526 82.5263 97.1633 83.3274 100.54C84.1285 103.917 84.0923 107.508 83.2233 110.86C82.3543 114.212 80.6916 117.173 78.4454 119.37C76.1992 121.567 73.4704 122.901 70.6039 123.203C67.7375 123.505 64.8622 122.761 62.3416 121.066C59.8209 119.371 57.7681 116.801 56.4427 113.68C55.1174 110.56 54.5789 107.029 54.8955 103.534C55.1057 101.213 55.6881 98.9656 56.6093 96.9197C57.5305 94.8738 58.7726 93.0697 60.2645 91.6105C61.7564 90.1513 63.4689 89.0656 65.3042 88.4154C67.1395 87.7652 69.0617 87.5632 70.9609 87.821ZM68.073 119.68C70.3687 119.992 72.6887 119.466 74.7396 118.167C76.7906 116.869 78.4804 114.856 79.5953 112.384C80.7102 109.912 81.2002 107.091 81.0033 104.278C80.8065 101.466 79.9315 98.7876 78.4892 96.5827C77.0469 94.3778 75.1019 92.745 72.9003 91.8909C70.6986 91.0368 68.3392 90.9997 66.1203 91.7842C63.9013 92.5688 61.9226 94.1398 60.4343 96.2986C58.946 98.4574 58.0149 101.107 57.7589 103.912C57.4182 107.673 58.3133 111.445 60.2473 114.399C62.1813 117.353 64.9961 119.248 68.073 119.668V119.68Z" fill="white" stroke="#2E353A" stroke-linecap="round" stroke-linejoin="round"/>
<path d="M65.7144 125.032L64.5974 137.356C64.5114 138.305 65.0711 139.16 65.8476 139.265L66.5359 139.358C67.3123 139.463 68.0115 138.779 68.0975 137.83L69.2145 125.505C69.3005 124.556 68.7407 123.702 67.9643 123.597L67.276 123.504C66.4995 123.399 65.8004 124.083 65.7144 125.032Z" fill="#CBA06B" stroke="#2E353A" stroke-linecap="round" stroke-linejoin="round"/>
<path d="M64.0063 164.761H63.9081C63.5021 164.707 63.1089 164.555 62.7512 164.314C62.3935 164.073 62.0784 163.747 61.8241 163.357C61.5698 162.966 61.3813 162.518 61.2694 162.038C61.1576 161.558 61.1246 161.055 61.1724 160.56L63.3777 136.191C63.4119 135.805 63.5082 135.43 63.6612 135.09C63.8141 134.749 64.0206 134.448 64.2688 134.205C64.5171 133.962 64.8022 133.781 65.1077 133.673C65.4133 133.565 65.7333 133.531 66.0495 133.575L67.5229 133.773C68.1612 133.859 68.7454 134.251 69.1469 134.863C69.5485 135.476 69.7346 136.258 69.6643 137.038L67.4591 161.436C67.4133 161.932 67.288 162.411 67.0904 162.848C66.8928 163.284 66.6267 163.668 66.3074 163.979C65.988 164.289 65.6217 164.52 65.2294 164.657C64.8371 164.794 64.4265 164.836 64.0211 164.779L64.0063 164.761Z" fill="#2E353A" stroke="#2E353A" stroke-linecap="round" stroke-linejoin="round"/>
<path d="M65.3471 154.096C65.3471 154.096 68.8343 154.258 69.3254 154.99C69.8166 155.722 69.7282 158.297 68.7803 158.591C66.3687 159.371 61.2264 158.915 61.0299 158.387C60.8335 157.859 60.4111 154.786 61.4769 154.456C62.7576 154.216 64.0514 154.095 65.3471 154.096Z" fill="white" stroke="#2E353A" stroke-linecap="round" stroke-linejoin="round"/>
<path d="M66.3687 148.159C66.3687 148.159 70.4305 147.967 71.0641 148.862C71.6977 149.756 71.8254 153.099 70.7498 153.603C68.019 154.882 61.8747 154.384 61.5997 153.723C61.3246 153.063 60.7107 149.636 61.914 149.084C63.1173 148.532 66.3687 148.159 66.3687 148.159Z" fill="white" stroke="#2E353A" stroke-linecap="round" stroke-linejoin="round"/>
<path d="M66.9631 141.419C66.9631 141.419 71.3048 141.221 71.9826 142.175C72.6604 143.13 72.793 146.707 71.6486 147.241C68.7017 148.616 62.3168 148.61 62.0172 147.907C61.7176 147.205 60.9121 143.004 62.1989 142.41C63.4857 141.815 66.9631 141.419 66.9631 141.419Z" fill="white" stroke="#2E353A" stroke-linecap="round" stroke-linejoin="round"/>
<path d="M69.4629 135.135C69.4629 135.135 73.8047 134.931 74.4825 135.885C75.1603 136.84 75.3223 140.525 74.1436 140.957C72.9648 141.389 64.8118 142.319 64.5122 141.617C64.2126 140.915 63.412 136.714 64.6988 136.125C65.9856 135.537 69.4629 135.135 69.4629 135.135Z" fill="white" stroke="#2E353A" stroke-linecap="round" stroke-linejoin="round"/>
<path d="M52.5771 153.183C54.29 153.265 55.9812 152.693 57.415 151.545C60.9119 148.598 60.7891 141.827 60.7891 141.827L61.6339 141.533C62.327 141.213 62.9762 140.766 63.5592 140.207C63.278 141.605 63.1134 143.035 63.0681 144.474C63.0867 145.263 63.3432 146.016 63.7883 146.587C64.2335 147.159 64.8358 147.509 65.4796 147.571C66.565 147.715 67.0464 147.865 67.4098 146.095C67.7733 144.324 69.5758 137.26 69.6986 136.233C69.8213 135.207 68.5198 133.623 66.4717 133.232C63.3235 133.551 60.2145 134.625 57.0466 134.625C55.9418 134.751 54.8825 135.224 53.972 135.999" fill="white"/>
<path d="M52.5771 153.183C54.29 153.265 55.9812 152.693 57.415 151.545C60.9119 148.598 60.7891 141.827 60.7891 141.827L61.6339 141.533C62.327 141.213 62.9762 140.766 63.5592 140.207C63.278 141.605 63.1134 143.035 63.0681 144.474C63.0867 145.263 63.3432 146.016 63.7883 146.587C64.2335 147.159 64.8358 147.509 65.4796 147.571C66.565 147.715 67.0464 147.865 67.4098 146.095C67.7733 144.324 69.5758 137.26 69.6986 136.233C69.8213 135.207 68.5198 133.623 66.4717 133.232C63.3235 133.551 60.2145 134.625 57.0466 134.625C55.9418 134.751 54.8825 135.224 53.972 135.999" stroke="#2E353A" stroke-linecap="round" stroke-linejoin="round"/>
<path d="M49.3552 152.577C50.0419 152.835 50.7476 153.01 51.4622 153.099L49.3552 152.577Z" fill="white"/>
<path d="M49.3552 152.577C50.0419 152.835 50.7476 153.01 51.4622 153.099" stroke="#2E353A" stroke-linecap="round" stroke-linejoin="round"/>
<path d="M45.0136 150.662H40.6768" stroke="#2E353A" stroke-linecap="round" stroke-linejoin="round"/>
<path d="M44.6551 152.133H42.8477" stroke="#2E353A" stroke-linecap="round" stroke-linejoin="round"/>
<path d="M60.799 141.827C60.799 141.827 58.4022 141.827 56.8306 140.081" stroke="#2E353A" stroke-linecap="round" stroke-linejoin="round"/>
<path d="M63.6282 140.015C63.6956 139.216 63.8305 138.427 64.0309 137.662" stroke="#2E353A" stroke-linecap="round" stroke-linejoin="round"/>
<path d="M67.4296 145.345C67.4296 145.345 67.8863 143.796 67.3264 143.238C66.7665 142.68 65.298 141.875 65.0475 142.494C64.797 143.112 64.2371 145.969 64.3894 146.521L64.5416 147.079" stroke="#2E353A" stroke-width="0.5" stroke-linecap="round" stroke-linejoin="round"/>
<path d="M0.869141 164.131H42.3957V139.18H0.869141" fill="#CBA06B"/>
<path d="M0.869141 164.131H42.3957V139.18H0.869141" stroke="#2E353A" stroke-linecap="round" stroke-linejoin="round"/>
<path d="M38.4175 161.316C38.4175 161.542 38.4722 161.762 38.5747 161.95C38.6773 162.137 38.823 162.283 38.9935 162.37C39.1641 162.456 39.3517 162.478 39.5327 162.434C39.7137 162.39 39.88 162.282 40.0105 162.122C40.141 161.963 40.2299 161.76 40.2659 161.538C40.3019 161.317 40.2834 161.088 40.2128 160.88C40.1422 160.671 40.0226 160.493 39.8691 160.368C39.7156 160.242 39.5352 160.176 39.3507 160.176C39.1032 160.176 38.8658 160.296 38.6908 160.51C38.5158 160.723 38.4175 161.014 38.4175 161.316Z" fill="white" stroke="#2E353A" stroke-linecap="round" stroke-linejoin="round"/>
</svg>
