<svg width="24" height="24" viewBox="0 0 24 24" fill="none" xmlns="http://www.w3.org/2000/svg">
<g clip-path="url(#clip0_43_307)">
<path d="M22.1511 15.0169C21.8209 15.0169 21.5533 15.2844 21.5533 15.6146V20.9217C21.5522 21.9117 20.7501 22.714 19.7602 22.7149H2.98862C1.99864 22.714 1.19662 21.9117 1.19545 20.9217V5.34564C1.19662 4.3559 1.99864 3.55364 2.98862 3.55247H8.29576C8.62591 3.55247 8.89348 3.2849 8.89348 2.95475C8.89348 2.62483 8.62591 2.35702 8.29576 2.35702H2.98862C1.33881 2.35889 0.00186789 3.69583 0 5.34564V20.922C0.00186789 22.5718 1.33881 23.9087 2.98862 23.9106H19.7602C21.41 23.9087 22.7469 22.5718 22.7488 20.922V15.6146C22.7488 15.2844 22.4812 15.0169 22.1511 15.0169Z" fill="black"/>
<path d="M22.5121 0.819057C21.4616 -0.231396 19.7586 -0.231396 18.7081 0.819057L8.04433 11.4828C7.97125 11.5559 7.91848 11.6465 7.89093 11.746L6.48861 16.8086C6.43094 17.0162 6.48954 17.2385 6.64178 17.391C6.79424 17.5432 7.01652 17.6018 7.22409 17.5444L12.2868 16.1418C12.3862 16.1143 12.4768 16.0615 12.5499 15.9884L23.2134 5.3244C24.2623 4.27325 24.2623 2.5716 23.2134 1.52045L22.5121 0.819057ZM9.34671 11.8713L18.0742 3.14364L20.8889 5.95831L12.1612 14.686L9.34671 11.8713ZM8.78448 12.9995L11.0332 15.2485L7.92268 16.1103L8.78448 12.9995ZM22.3682 4.47918L21.7343 5.1131L18.9194 2.29819L19.5536 1.66428C20.137 1.08079 21.0831 1.08079 21.6666 1.66428L22.3682 2.36567C22.9508 2.94985 22.9508 3.89523 22.3682 4.47918Z" fill="black"/>
</g>
<defs>
<clipPath id="clip0_43_307">
<rect width="24" height="24" fill="white"/>
</clipPath>
</defs>
</svg>
