<svg width="25" height="24" viewBox="0 0 25 24" fill="none" xmlns="http://www.w3.org/2000/svg">
<path d="M24.7211 0.904875C24.6387 0.885962 24.5515 0.892863 24.4741 0.924417C24.3967 0.95597 24.334 1.01025 24.2963 1.07812C24.2626 1.13962 23.4275 2.59913 19.7694 4.31625C19.7189 4.33587 19.6739 4.3653 19.6379 4.40239C19.6019 4.43948 19.5757 4.48328 19.5612 4.53056C19.3326 5.29149 19.0227 6.03123 18.6356 6.73969C18.422 6.32844 18.2789 5.8911 18.211 5.44219C18.2029 5.39242 18.1821 5.34497 18.1502 5.30348C18.1182 5.262 18.076 5.2276 18.0267 5.20294C17.9774 5.17828 17.9224 5.16401 17.8659 5.16125C17.8094 5.15849 17.753 5.1673 17.7009 5.187C16.734 5.55319 15.6816 5.90194 14.5729 6.22331C13.1029 6.64092 11.6845 7.19044 10.3396 7.86338C10.2618 7.90305 10.203 7.96658 10.1741 8.04206C10.0073 8.47706 9.82713 8.88794 9.63363 9.27469C9.64165 9.14569 9.65234 9.00856 9.6657 8.86332C9.67148 8.80132 9.65733 8.73915 9.62488 8.68403C9.59244 8.62892 9.54303 8.58314 9.48243 8.55203C9.42183 8.52092 9.35253 8.50576 9.28261 8.50832C9.21269 8.51089 9.14503 8.53106 9.08752 8.5665C5.33726 10.875 3.29369 14.1332 2.65898 18.8081C1.69809 19.7016 0.854035 20.6888 0.142921 21.7509C0.0100932 21.9516 -0.0315213 22.1897 0.0265834 22.4167C0.084688 22.6437 0.238124 22.8424 0.45553 22.9721C0.616168 23.0641 0.803173 23.1131 0.994265 23.1133H17.8693C17.9672 23.1133 18.0611 23.0787 18.1303 23.0172C18.1995 22.9557 18.2384 22.8722 18.2384 22.7852C18.2384 22.6982 18.1995 22.6147 18.1303 22.5532C18.0611 22.4916 17.9672 22.4571 17.8693 22.4571H2.00908C2.65004 21.5395 3.4 20.6857 4.24608 19.9104C7.88496 19.7518 16.3229 19.0986 19.639 16.4334C19.8797 16.2398 20.1086 16.035 20.3248 15.8198C20.3681 15.7769 20.398 15.7246 20.4114 15.6682C20.4247 15.6118 20.4212 15.5533 20.401 15.4985C20.3809 15.4438 20.3449 15.3947 20.2966 15.3562C20.2484 15.3177 20.1895 15.2912 20.1261 15.2794C20.047 15.2648 19.9687 15.2494 19.8909 15.2338C20.1533 15.2008 20.4482 15.1695 20.7732 15.1436C20.8272 15.1392 20.8794 15.1243 20.9262 15.1C20.973 15.0757 21.0133 15.0426 21.0441 15.003C23.7397 11.526 24.5155 8.82488 24.9964 1.2405C25.0011 1.16492 24.9763 1.09021 24.9261 1.02904C24.876 0.967876 24.8035 0.924008 24.7211 0.904875ZM0.780585 22.0815C3.0798 18.5753 7.33441 15.9107 11.8386 13.0901C12.781 12.5001 13.8501 11.8313 14.8746 11.1624C14.9199 11.1326 14.9749 11.1164 15.0313 11.1163C15.0454 11.1163 15.0595 11.1173 15.0735 11.1193C15.1076 11.124 15.1404 11.1347 15.1698 11.1508C15.1992 11.1669 15.2247 11.1881 15.2448 11.2131C15.2858 11.2632 15.3029 11.3257 15.2924 11.3869C15.2819 11.4482 15.2446 11.5033 15.1887 11.5403C14.1595 12.2102 13.0877 12.8813 12.1415 13.4734C7.6774 16.269 3.46076 18.9096 1.22039 22.3408C1.20259 22.3681 1.17872 22.3919 1.15023 22.4108C1.12175 22.4296 1.08925 22.4431 1.05472 22.4504C1.02018 22.4577 0.984329 22.4587 0.949349 22.4533C0.914369 22.4479 0.880991 22.4362 0.851249 22.419C0.794157 22.3808 0.75524 22.3249 0.742161 22.2625C0.729082 22.2 0.74279 22.1354 0.780585 22.0815ZM20.5332 14.5044C19.7518 14.5623 18.9776 14.6815 18.2198 14.8607C18.1455 14.8807 18.0802 14.9211 18.0331 14.976C17.9861 15.0309 17.9597 15.0977 17.9577 15.1667C17.9558 15.2357 17.9784 15.3035 18.0223 15.3605C18.0662 15.4174 18.1292 15.4606 18.2023 15.4839C18.5576 15.5964 18.9362 15.6988 19.3336 15.7892C19.2703 15.843 19.2081 15.8951 19.1438 15.9461C16.1881 18.3216 8.48866 19.0183 5.02402 19.2141C7.15702 17.3985 9.8142 15.7341 12.5676 14.01C13.5168 13.4162 14.5905 12.7433 15.6243 12.0692C15.837 11.9293 15.9792 11.7206 16.0198 11.4881C16.0604 11.2557 15.9963 11.0184 15.8413 10.8278C15.7638 10.7327 15.6659 10.6523 15.5533 10.5911C15.4407 10.5298 15.3156 10.489 15.1851 10.471C15.0547 10.4529 14.9215 10.458 14.7933 10.4859C14.665 10.5138 14.5443 10.5639 14.4379 10.6335C13.4183 11.2984 12.353 11.9648 11.4133 12.5539C8.54794 14.3483 5.78255 16.0804 3.531 18.0171C4.2176 14.2633 5.93737 11.5269 8.88206 9.51206C8.8609 9.89463 8.86647 10.278 8.89873 10.6599C8.90648 10.7286 8.9384 10.7934 8.98995 10.845C9.04149 10.8966 9.11003 10.9325 9.18583 10.9475C9.26162 10.9624 9.3408 10.9558 9.41211 10.9285C9.48342 10.9012 9.54322 10.8546 9.58301 10.7953C10.0878 10.0265 10.5048 9.21473 10.8275 8.37207C12.0935 7.74972 13.425 7.23903 14.8029 6.84731C15.7711 6.56606 16.6979 6.26494 17.5647 5.94919C17.8326 7.04269 18.3506 7.5945 18.3753 7.62C18.4138 7.66019 18.4626 7.69154 18.5176 7.71138C18.5726 7.73123 18.6322 7.73898 18.6913 7.734C18.7504 7.72901 18.8073 7.71143 18.8571 7.68273C18.9069 7.65404 18.9482 7.61509 18.9775 7.56919C19.5163 6.70776 19.9371 5.79204 20.2307 4.84163C22.3076 3.85425 23.5121 2.93625 24.1864 2.28975C23.7139 8.81888 22.9275 11.3766 20.5332 14.5044Z" fill="black"/>
</svg>
